<svg viewBox="0 0 512 512" xmlns="http://www.w3.org/2000/svg"><path d="m290.117188 209.035156-34.117188-69.140625-34.117188 69.140625-76.304687 11.089844 55.210937 53.804688-13.035156 75.996093 68.246094-35.875 68.246094 35.875-13.035156-75.996093 55.210937-53.804688zm0 0"/><path d="m256 0c-140.609375 0-256 115.390625-256 256s115.390625 256 256 256 256-115.390625 256-256-115.390625-256-256-256zm108.089844 404.769531-108.089844-56.820312-108.089844 56.820312 20.652344-120.351562-87.464844-85.238281 120.863282-17.5625 54.039062-109.511719 54.039062 109.511719 120.863282 17.5625-87.464844 85.238281zm0 0"/></svg>